<svg xmlns="http://www.w3.org/2000/svg" width="20.03" height="20" viewBox="0 0 20.03 20">
  <metadata><?xpacket begin="﻿" id="W5M0MpCehiHzreSzNTczkc9d"?>
<x:xmpmeta xmlns:x="adobe:ns:meta/" x:xmptk="Adobe XMP Core 5.6-c142 79.160924, 2017/07/13-01:06:39        ">
   <rdf:RDF xmlns:rdf="http://www.w3.org/1999/02/22-rdf-syntax-ns#">
      <rdf:Description rdf:about=""/>
   </rdf:RDF>
</x:xmpmeta>
                                                                                                    
                                                                                                    
                                                                                                    
                                                                                                    
                                                                                                    
                                                                                                    
                                                                                                    
                                                                                                    
                                                                                                    
                                                                                                    
                                                                                                    
                                                                                                    
                                                                                                    
                                                                                                    
                                                                                                    
                                                                                                    
                                                                                                    
                                                                                                    
                                                                                                    
                                                                                                    
                           
<?xpacket end="w"?></metadata>
<defs>
    <style>
      .cls-1 {
        fill: #fff;
        fill-rule: evenodd;
      }
    </style>
  </defs>
  <path id="Фигура_72" data-name="Фигура 72" class="cls-1" d="M1296.55,1733a4.606,4.606,0,0,1,1.25,1.17c0.13,0.1.26,0.2,0.39,0.31,0.86,0.88,1.72,1.76,2.57,2.64a3.711,3.711,0,0,1,1.17,1.33,2.008,2.008,0,0,0-.46.46c-0.37.37-.73,0.73-1.1,1.09-0.16.16-.53,0.32-0.39,0.55a3.388,3.388,0,0,0,.63.93v0.16c0.08,0.05.15,0.1,0.23,0.15v0.16c0.08,0.05.16,0.1,0.24,0.16v0.15c0.13,0.1.26,0.21,0.39,0.31v0.16c0.33,0.31.67,0.62,1.01,0.93,0.21,0.24.41,0.47,0.62,0.7h0.16c0.1,0.13.21,0.26,0.31,0.39,0.08,0.03.16,0.05,0.23,0.08a1.093,1.093,0,0,1,.08.15h0.16l0.15,0.24h0.16c0.05,0.08.1,0.15,0.16,0.23h0.15c0.03,0.05.05,0.11,0.08,0.16h0.16v0.08h0.15c0.03,0.05.05,0.1,0.08,0.15h0.16v0.08a1.752,1.752,0,0,0,.7-0.62c0.33-.29.67-0.57,1.01-0.86a1.079,1.079,0,0,1,.7-0.54q1.95,2.01,3.9,4.04c0.47,0.44.94,0.88,1.4,1.33v0.15a5.456,5.456,0,0,0-.93.93c-0.44.42-.89,0.83-1.33,1.25-0.18.21-.36,0.41-0.54,0.62h-0.16c-0.03.05-.05,0.11-0.08,0.16h-0.15a1.093,1.093,0,0,0-.08.15c-0.37.13-.73,0.26-1.09,0.39a2.863,2.863,0,0,1-1.48-.15h-0.32v-0.08c-0.15-.05-0.31-0.1-0.46-0.16v-0.07h-0.16v-0.08h-0.16v-0.08h-0.15v-0.08h-0.16v-0.08h-0.15v-0.07h-0.16a0.8,0.8,0,0,0-.08-0.16c-0.15-.05-0.31-0.1-0.46-0.15-0.03-.06-0.06-0.11-0.08-0.16-0.11-.03-0.21-0.05-0.31-0.08a1.093,1.093,0,0,1-.08-0.15h-0.16v-0.08h-0.15v-0.08c-0.08-.03-0.16-0.05-0.24-0.08a1.093,1.093,0,0,0-.08-0.15c-0.1-.03-0.2-0.05-0.31-0.08-0.02-.05-0.05-0.1-0.08-0.16h-0.15c-0.05-.07-0.11-0.15-0.16-0.23h-0.15v-0.08a2.25,2.25,0,0,1-.24-0.08,1.093,1.093,0,0,0-.08-0.15h-0.15c-0.05-.08-0.11-0.16-0.16-0.23h-0.15c-0.05-.08-0.11-0.16-0.16-0.24h-0.15c-0.06-.08-0.11-0.15-0.16-0.23h-0.16a3.553,3.553,0,0,0-.23-0.31h-0.16c-0.1-.13-0.2-0.26-0.31-0.39h-0.15c-0.16-.18-0.32-0.37-0.47-0.55h-0.16c-0.28-.31-0.57-0.62-0.86-0.93-0.51-.49-1.03-0.99-1.55-1.48v-0.15c-0.16-.13-0.32-0.26-0.47-0.39v-0.16c-0.05-.03-0.11-0.05-0.16-0.08v-0.08c-0.08-.05-0.15-0.1-0.23-0.15v-0.16a3.553,3.553,0,0,1-.31-0.23v-0.16l-0.24-.15v-0.16c-0.08-.05-0.15-0.1-0.23-0.15v-0.16l-0.24-.15v-0.16c-0.07-.05-0.15-0.1-0.23-0.16v-0.15c-0.05-.03-0.1-0.05-0.15-0.08v-0.15c-0.06-.03-0.11-0.06-0.16-0.08v-0.16c-0.05-.02-0.1-0.05-0.16-0.08v-0.15c-0.05-.03-0.1-0.05-0.15-0.08v-0.15a1.194,1.194,0,0,0-.16-0.08,2.806,2.806,0,0,0-.08-0.31,1.093,1.093,0,0,0-.15-0.08c-0.03-.11-0.05-0.21-0.08-0.31-0.05-.03-0.1-0.05-0.16-0.08-0.05-.16-0.1-0.31-0.15-0.47a1.194,1.194,0,0,1-.16-0.08c-0.31-.67-0.62-1.34-0.93-2.02a5.68,5.68,0,0,1,.15-2.02h0.08v-0.16h0.08c0.02-.1.05-0.21,0.08-0.31,0.05-.03.1-0.05,0.15-0.08v-0.15c0.7-.73,1.41-1.46,2.11-2.18C1295.98,1733.52,1296.27,1733.26,1296.55,1733Zm16.45,9.26h-1.56v-2.57h-0.07v-0.62c-0.01-.64.09-1.24-0.32-1.48a1.979,1.979,0,0,0-1.17-.15h-3.04v0.07a6.818,6.818,0,0,1,1.17,1.17,1.383,1.383,0,0,1,.55.62c-0.42.25-.73,0.95-1.25,1.02-0.88-.91-1.77-1.82-2.65-2.73a3.092,3.092,0,0,1-.93-1.01c0.91-.88,1.82-1.76,2.72-2.65a2.434,2.434,0,0,1,1.1-.93,6.888,6.888,0,0,1,1.01,1.17,3.844,3.844,0,0,0-.78.78,4.329,4.329,0,0,0-.86.85h4.13c0.24,0.08.47,0.16,0.71,0.23v0.08c0.1,0.03.2,0.05,0.31,0.08,0.13,0.16.26,0.31,0.39,0.47a1.093,1.093,0,0,1,.15.08v0.15c0.05,0.03.11,0.05,0.16,0.08a3.937,3.937,0,0,1,.23,1.87v3.42Zm-16.45-6.93a2.017,2.017,0,0,1-.39.32c-0.23.26-.46,0.51-0.7,0.77-0.13.11-.26,0.21-0.39,0.32v0.15c-0.05.03-.1,0.05-0.15,0.08v0.15a1.194,1.194,0,0,1-.16.08v0.24h-0.08a2.413,2.413,0,0,0,.24,1.47H1295v0.16h0.07v0.16h0.08v0.15h0.08v0.16h0.08v0.15c0.05,0.03.1,0.05,0.15,0.08,0.06,0.16.11,0.31,0.16,0.47a1.093,1.093,0,0,1,.15.08,2.806,2.806,0,0,1,.08.31c0.05,0.02.11,0.05,0.16,0.07,0.02,0.11.05,0.21,0.08,0.32h0.07a1.555,1.555,0,0,1,.08.23c0.05,0.03.11,0.05,0.16,0.08v0.15c0.05,0.03.1,0.05,0.15,0.08v0.16c0.06,0.02.11,0.05,0.16,0.07v0.16h0.08a1.555,1.555,0,0,0,.08.23c0.05,0.03.1,0.05,0.15,0.08v0.16l0.24,0.15v0.16c0.07,0.05.15,0.1,0.23,0.15v0.16c0.08,0.05.16,0.1,0.23,0.15v0.16c0.11,0.08.21,0.16,0.32,0.23v0.16c0.13,0.1.26,0.21,0.39,0.31v0.16c0.18,0.15.36,0.31,0.54,0.46v0.16c0.31,0.28.62,0.57,0.94,0.86,0.41,0.44.83,0.88,1.24,1.32h0.16c0.16,0.18.31,0.36,0.47,0.54h0.15c0.08,0.11.16,0.21,0.24,0.31h0.15c0.08,0.11.16,0.21,0.24,0.32h0.15c0.08,0.1.16,0.2,0.24,0.31h0.15c0.05,0.07.11,0.15,0.16,0.23h0.15a0.8,0.8,0,0,1,.08.16h0.16c0.05,0.07.1,0.15,0.15,0.23h0.16c0.03,0.05.05,0.1,0.08,0.16,0.08,0.02.15,0.05,0.23,0.07v0.08h0.16c0.02,0.05.05,0.1,0.08,0.16,0.07,0.02.15,0.05,0.23,0.07v0.08h0.16v0.08h0.15c0.03,0.05.05,0.1,0.08,0.16,0.1,0.02.21,0.05,0.31,0.07,0.03,0.06.05,0.11,0.08,0.16h0.15v0.08h0.16c0.03,0.05.05,0.1,0.08,0.15h0.15v0.08h0.16v0.08h0.16v0.08h0.15c0.03,0.05.05,0.1,0.08,0.15h0.16v0.08c0.15,0.05.31,0.1,0.46,0.16v0.07c0.16,0.03.32,0.05,0.47,0.08v0.08a3.017,3.017,0,0,0,1.17-.16,5.367,5.367,0,0,0,1.01-1.01,2.194,2.194,0,0,0,.78-0.85c-0.75-.73-1.5-1.46-2.26-2.18a2.4,2.4,0,0,0-.93-0.86,1.084,1.084,0,0,1-.31.23c-0.47.5-.94,0.99-1.41,1.48-0.41-.18-0.83-0.36-1.24-0.54a1.194,1.194,0,0,1-.08-0.16,2.806,2.806,0,0,1-.31-0.08,1.093,1.093,0,0,1-.08-0.15h-0.16a1.194,1.194,0,0,0-.08-0.16h-0.15c-0.03-.05-0.05-0.1-0.08-0.15h-0.16c-0.02-.05-0.05-0.11-0.07-0.16h-0.16c-0.03-.05-0.05-0.1-0.08-0.15a2.094,2.094,0,0,0-.23-0.08c-0.05-.08-0.11-0.16-0.16-0.24h-0.15c-0.11-.13-0.21-0.26-0.31-0.38h-0.16c-0.34-.37-0.68-0.73-1.01-1.09-0.29-.26-0.58-0.52-0.86-0.78v-0.16c-0.13-.1-0.26-0.21-0.39-0.31v-0.16l-0.24-.15v-0.16c-0.1-.07-0.2-0.15-0.31-0.23v-0.16c-0.05-.02-0.1-0.05-0.15-0.07a2.25,2.25,0,0,1-.08-0.24h-0.08v-0.15c-0.05-.03-0.1-0.05-0.15-0.08v-0.16c-0.06-.02-0.11-0.05-0.16-0.07-0.03-.11-0.05-0.21-0.08-0.32-0.05-.02-0.1-0.05-0.15-0.07-0.19-.42-0.37-0.83-0.55-1.25a4.942,4.942,0,0,0,.86-0.85,5.513,5.513,0,0,0,.93-0.94c-0.75-.72-1.5-1.45-2.26-2.18A2.309,2.309,0,0,0,1296.55,1735.33Z" transform="translate(-1293 -1733)"/>
</svg>
