<svg xmlns="http://www.w3.org/2000/svg" width="14" height="14" viewBox="0 0 14 14">
  <metadata><?xpacket begin="﻿" id="W5M0MpCehiHzreSzNTczkc9d"?>
<x:xmpmeta xmlns:x="adobe:ns:meta/" x:xmptk="Adobe XMP Core 5.6-c142 79.160924, 2017/07/13-01:06:39        ">
   <rdf:RDF xmlns:rdf="http://www.w3.org/1999/02/22-rdf-syntax-ns#">
      <rdf:Description rdf:about=""/>
   </rdf:RDF>
</x:xmpmeta>
                                                                                                    
                                                                                                    
                                                                                                    
                                                                                                    
                                                                                                    
                                                                                                    
                                                                                                    
                                                                                                    
                                                                                                    
                                                                                                    
                                                                                                    
                                                                                                    
                                                                                                    
                                                                                                    
                                                                                                    
                                                                                                    
                                                                                                    
                                                                                                    
                                                                                                    
                                                                                                    
                           
<?xpacket end="w"?></metadata>
<defs>
    <style>
      .cls-1 {
        fill: #0abbb5;
        fill-rule: evenodd;
      }
    </style>
  </defs>
  <path id="phone" class="cls-1" d="M718.532,337.3a0.444,0.444,0,0,1-.619,0,0.462,0.462,0,0,1-.1-0.473,1.517,1.517,0,0,1,.057-0.16,1.363,1.363,0,0,0,.058-0.16,5.088,5.088,0,0,0,.149-0.643,4.361,4.361,0,0,0-.173-2.026,4.352,4.352,0,0,0-2.8-2.779,4.363,4.363,0,0,0-2.027-.157,5.074,5.074,0,0,0-.642.152c-0.036.011-.089,0.03-0.16,0.06a1.433,1.433,0,0,1-.159.058,0.463,0.463,0,0,1-.474-0.093,0.442,0.442,0,0,1,0-.619,0.464,0.464,0,0,1,.149-0.1,5.242,5.242,0,0,1,6.841,6.789A0.5,0.5,0,0,1,718.532,337.3Zm-6.236-4.6a0.418,0.418,0,0,1-.127-0.309,0.425,0.425,0,0,1,.125-0.31,0.48,0.48,0,0,1,.15-0.1,3.37,3.37,0,0,1,2-.188,3.486,3.486,0,0,1,2.737,2.717,3.375,3.375,0,0,1-.172,2,0.478,0.478,0,0,1-.1.145,0.428,0.428,0,0,1-.314.132,0.418,0.418,0,0,1-.309-0.123,0.436,0.436,0,0,1-.1-0.475,4.148,4.148,0,0,0,.153-0.58,2.6,2.6,0,0,0-.739-2.249,2.557,2.557,0,0,0-1.041-.633,2.586,2.586,0,0,0-1.214-.09,4.23,4.23,0,0,0-.579.158A0.433,0.433,0,0,1,712.3,332.7Zm2.073,1.9a0.838,0.838,0,0,0-.334-0.215,0.689,0.689,0,0,0-.312-0.03q-0.142.022-.276,0.054a0.8,0.8,0,0,1-.261.021,0.372,0.372,0,0,1-.23-0.112,0.416,0.416,0,0,1-.128-0.312,0.425,0.425,0,0,1,.127-0.307,0.388,0.388,0,0,1,.145-0.1,1.579,1.579,0,0,1,.993-0.1,1.759,1.759,0,0,1,.894.478,1.738,1.738,0,0,1,.48.886,1.616,1.616,0,0,1-.09,1,0.4,0.4,0,0,1-.1.145,0.428,0.428,0,0,1-.307.129,0.414,0.414,0,0,1-.312-0.126,0.362,0.362,0,0,1-.114-0.228,0.78,0.78,0,0,1,.019-0.262c0.02-.088.038-0.18,0.052-0.275a0.691,0.691,0,0,0-.032-0.312A0.832,0.832,0,0,0,714.369,334.6Zm-1.713,5.936c0.109,0.068.186,0.112,0.23,0.134a2,2,0,0,0,.2.082,0.645,0.645,0,0,0,.216.048,0.723,0.723,0,0,0,.441-0.274,5.671,5.671,0,0,0,.509-0.594,4.678,4.678,0,0,1,.528-0.595,0.79,0.79,0,0,1,.479-0.274,0.626,0.626,0,0,1,.274.068,2.629,2.629,0,0,1,.34.206c0.135,0.092.215,0.149,0.24,0.167q0.24,0.145.514,0.3c0.182,0.1.385,0.214,0.609,0.336s0.4,0.217.518,0.288a1.626,1.626,0,0,1,.729.509,0.516,0.516,0,0,1,.029.2,3.174,3.174,0,0,1-.1.676,3.859,3.859,0,0,1-.2.657,2.582,2.582,0,0,1-1.171,1.017,3.721,3.721,0,0,1-1.785.489,3.761,3.761,0,0,1-.5-0.033,4.327,4.327,0,0,1-.552-0.12c-0.205-.058-0.357-0.105-0.456-0.139s-0.277-.1-0.533-0.2-0.412-.154-0.47-0.173a8.707,8.707,0,0,1-1.679-.8,16.125,16.125,0,0,1-4.606-4.606,8.679,8.679,0,0,1-.8-1.679c-0.02-.057-0.077-0.214-0.173-0.47s-0.162-.433-0.2-0.532-0.081-.252-0.139-0.456a4.218,4.218,0,0,1-.12-0.551,3.791,3.791,0,0,1-.033-0.5,3.727,3.727,0,0,1,.489-1.785,2.568,2.568,0,0,1,1.017-1.169,3.77,3.77,0,0,1,.657-0.2,3.122,3.122,0,0,1,.677-0.1,0.537,0.537,0,0,1,.2.029,1.641,1.641,0,0,1,.509.729c0.071,0.121.166,0.294,0.288,0.518s0.233,0.427.336,0.609,0.2,0.354.3,0.514c0.019,0.026.075,0.1,0.168,0.239a2.725,2.725,0,0,1,.207.341,0.638,0.638,0,0,1,.067.274,0.8,0.8,0,0,1-.274.479,4.61,4.61,0,0,1-.6.528,5.906,5.906,0,0,0-.6.508,0.732,0.732,0,0,0-.273.442,0.63,0.63,0,0,0,.048.214,2.122,2.122,0,0,0,.081.2c0.023,0.045.067,0.122,0.135,0.23s0.1,0.17.11,0.183a9.507,9.507,0,0,0,3.925,3.924C712.486,340.433,712.547,340.471,712.656,340.537Z" transform="translate(-705 -329.969)"/>
</svg>
