<svg xmlns="http://www.w3.org/2000/svg" width="39" height="39.22" viewBox="0 0 39 39.22">
  <metadata><?xpacket begin="﻿" id="W5M0MpCehiHzreSzNTczkc9d"?>
<x:xmpmeta xmlns:x="adobe:ns:meta/" x:xmptk="Adobe XMP Core 5.6-c142 79.160924, 2017/07/13-01:06:39        ">
   <rdf:RDF xmlns:rdf="http://www.w3.org/1999/02/22-rdf-syntax-ns#">
      <rdf:Description rdf:about=""/>
   </rdf:RDF>
</x:xmpmeta>
                                                                                                    
                                                                                                    
                                                                                                    
                                                                                                    
                                                                                                    
                                                                                                    
                                                                                                    
                                                                                                    
                                                                                                    
                                                                                                    
                                                                                                    
                                                                                                    
                                                                                                    
                                                                                                    
                                                                                                    
                                                                                                    
                                                                                                    
                                                                                                    
                                                                                                    
                                                                                                    
                           
<?xpacket end="w"?></metadata>
<defs>
    <style>
      .cls-1 {
        fill: #fff;
        fill-rule: evenodd;
      }
    </style>
  </defs>
  <path id="ИГ" class="cls-1" d="M916.514,1791.48a4.789,4.789,0,0,0-3.528-1.48H884a4.786,4.786,0,0,0-3.528,1.48,4.859,4.859,0,0,0-1.473,3.55v29.16a5.041,5.041,0,0,0,5,5.03h28.988a5.04,5.04,0,0,0,5-5.03v-29.16A4.862,4.862,0,0,0,916.514,1791.48ZM893,1804.13a7.98,7.98,0,0,1,11.067,0,7.494,7.494,0,0,1,0,10.8,7.955,7.955,0,0,1-11.067,0A7.5,7.5,0,0,1,893,1804.13Zm20.574,19.01a1.548,1.548,0,0,1-1.55,1.56H884.886a1.488,1.488,0,0,1-1.1-.45,1.519,1.519,0,0,1-.444-1.11v-16.55h3.579a11.528,11.528,0,0,0,3.046,11.71,11.808,11.808,0,0,0,8.554,3.46,12.2,12.2,0,0,0,6.093-1.58,11.927,11.927,0,0,0,4.416-4.3,11.408,11.408,0,0,0,1.625-5.94,11.119,11.119,0,0,0-.508-3.35h3.427v16.55h0Zm0-22.8a1.707,1.707,0,0,1-.508,1.25,1.688,1.688,0,0,1-1.244.51H907.4a1.686,1.686,0,0,1-1.243-.51,1.707,1.707,0,0,1-.508-1.25v-4.22a1.711,1.711,0,0,1,.508-1.23,1.667,1.667,0,0,1,1.243-.53h4.417a1.669,1.669,0,0,1,1.244.53,1.711,1.711,0,0,1,.508,1.23v4.22Z" transform="translate(-879 -1790)"/>
</svg>
