<svg xmlns="http://www.w3.org/2000/svg" width="39" height="39.22" viewBox="0 0 39 39.22">
  <metadata><?xpacket begin="﻿" id="W5M0MpCehiHzreSzNTczkc9d"?>
<x:xmpmeta xmlns:x="adobe:ns:meta/" x:xmptk="Adobe XMP Core 5.6-c142 79.160924, 2017/07/13-01:06:39        ">
   <rdf:RDF xmlns:rdf="http://www.w3.org/1999/02/22-rdf-syntax-ns#">
      <rdf:Description rdf:about=""/>
   </rdf:RDF>
</x:xmpmeta>
                                                                                                    
                                                                                                    
                                                                                                    
                                                                                                    
                                                                                                    
                                                                                                    
                                                                                                    
                                                                                                    
                                                                                                    
                                                                                                    
                                                                                                    
                                                                                                    
                                                                                                    
                                                                                                    
                                                                                                    
                                                                                                    
                                                                                                    
                                                                                                    
                                                                                                    
                                                                                                    
                           
<?xpacket end="w"?></metadata>
<defs>
    <style>
      .cls-1 {
        fill: #fff;
        fill-rule: evenodd;
      }
    </style>
  </defs>
  <path id="ФБ" class="cls-1" d="M968.857,1791.94a7.014,7.014,0,0,0-5.165-2.16H939.325a7.017,7.017,0,0,0-5.166,2.16,7.1,7.1,0,0,0-2.145,5.19v24.52a7.349,7.349,0,0,0,7.311,7.35h24.367a7.014,7.014,0,0,0,5.165-2.16,7.086,7.086,0,0,0,2.145-5.19v-24.52A7.1,7.1,0,0,0,968.857,1791.94Zm-3.667,18.01h-4.442v16.22H954.1v-16.22h-3.326v-5.59H954.1v-3.34a7.82,7.82,0,0,1,1.675-5.44q1.674-1.845,5.533-1.84h4.442v5.59h-2.792a2.345,2.345,0,0,0-1.815.5,2.894,2.894,0,0,0-.393,1.75v2.78h5.026Z" transform="translate(-932 -1789.78)"/>
</svg>
