<svg xmlns="http://www.w3.org/2000/svg" width="15" height="16" viewBox="0 0 15 16">
  <metadata><?xpacket begin="﻿" id="W5M0MpCehiHzreSzNTczkc9d"?>
<x:xmpmeta xmlns:x="adobe:ns:meta/" x:xmptk="Adobe XMP Core 5.6-c142 79.160924, 2017/07/13-01:06:39        ">
   <rdf:RDF xmlns:rdf="http://www.w3.org/1999/02/22-rdf-syntax-ns#">
      <rdf:Description rdf:about=""/>
   </rdf:RDF>
</x:xmpmeta>
                                                                                                    
                                                                                                    
                                                                                                    
                                                                                                    
                                                                                                    
                                                                                                    
                                                                                                    
                                                                                                    
                                                                                                    
                                                                                                    
                                                                                                    
                                                                                                    
                                                                                                    
                                                                                                    
                                                                                                    
                                                                                                    
                                                                                                    
                                                                                                    
                                                                                                    
                                                                                                    
                           
<?xpacket end="w"?></metadata>
<defs>
    <style>
      .cls-1 {
        fill: #0abbb5;
        fill-rule: evenodd;
      }
    </style>
  </defs>
  <path id="Avatar" class="cls-1" d="M720.224,288.277a2.913,2.913,0,0,1-2.068.724h-9.313a2.911,2.911,0,0,1-2.067-.724A2.565,2.565,0,0,1,706,286.3q0-.552.037-1.079a10.568,10.568,0,0,1,.149-1.135,8.673,8.673,0,0,1,.283-1.13,5.288,5.288,0,0,1,.458-1.016,3.676,3.676,0,0,1,.661-0.844,2.759,2.759,0,0,1,.911-0.557,3.257,3.257,0,0,1,1.188-.209,1.317,1.317,0,0,1,.447.224q0.353,0.225.794,0.5a5.094,5.094,0,0,0,1.151.5,4.629,4.629,0,0,0,2.845,0,5.094,5.094,0,0,0,1.151-.5q0.443-.276.794-0.5a1.317,1.317,0,0,1,.447-0.224,3.257,3.257,0,0,1,1.188.209,2.769,2.769,0,0,1,.911.557,3.676,3.676,0,0,1,.661.844,5.227,5.227,0,0,1,.458,1.016,8.673,8.673,0,0,1,.283,1.13,10.568,10.568,0,0,1,.149,1.135Q721,285.751,721,286.3A2.568,2.568,0,0,1,720.224,288.277ZM713.5,281a3.988,3.988,0,0,1-2.893-1.172,3.936,3.936,0,0,1,0-5.657,4.157,4.157,0,0,1,5.786,0,3.936,3.936,0,0,1,0,5.657A3.988,3.988,0,0,1,713.5,281Z" transform="translate(-706 -273)"/>
</svg>
