<svg xmlns="http://www.w3.org/2000/svg" width="14" height="10" viewBox="0 0 14 10">
  <metadata><?xpacket begin="﻿" id="W5M0MpCehiHzreSzNTczkc9d"?>
<x:xmpmeta xmlns:x="adobe:ns:meta/" x:xmptk="Adobe XMP Core 5.6-c142 79.160924, 2017/07/13-01:06:39        ">
   <rdf:RDF xmlns:rdf="http://www.w3.org/1999/02/22-rdf-syntax-ns#">
      <rdf:Description rdf:about=""/>
   </rdf:RDF>
</x:xmpmeta>
                                                                                                    
                                                                                                    
                                                                                                    
                                                                                                    
                                                                                                    
                                                                                                    
                                                                                                    
                                                                                                    
                                                                                                    
                                                                                                    
                                                                                                    
                                                                                                    
                                                                                                    
                                                                                                    
                                                                                                    
                                                                                                    
                                                                                                    
                                                                                                    
                                                                                                    
                                                                                                    
                           
<?xpacket end="w"?></metadata>
<defs>
    <style>
      .cls-1 {
        fill: #0abbb5;
        fill-rule: evenodd;
      }
    </style>
  </defs>
  <path id="mail" class="cls-1" d="M718.039,394.973H706.387a1.16,1.16,0,0,1-1.18-1.139v-7.727a1.161,1.161,0,0,1,1.18-1.14h11.652a1.161,1.161,0,0,1,1.18,1.14v7.727A1.161,1.161,0,0,1,718.039,394.973ZM706.65,393.54a0.471,0.471,0,0,0,.65.053l2.327-1.9a0.435,0.435,0,0,0,.055-0.628,0.472,0.472,0,0,0-.65-0.051l-2.327,1.9A0.434,0.434,0,0,0,706.65,393.54Zm10.791-7.133a0.485,0.485,0,0,0-.667-0.03l-4.615,4.077-4.615-4.077a0.485,0.485,0,0,0-.667.03,0.444,0.444,0,0,0,.029.643l4.924,4.349a0.477,0.477,0,0,0,.318.119h0.023a0.476,0.476,0,0,0,.317-0.119l4.924-4.349A0.444,0.444,0,0,0,717.441,386.407Zm0.183,6.506-2.327-1.9a0.472,0.472,0,0,0-.65.051,0.435,0.435,0,0,0,.055.628l2.327,1.9a0.471,0.471,0,0,0,.65-0.053A0.434,0.434,0,0,0,717.624,392.913Z" transform="translate(-705.219 -384.969)"/>
</svg>
