<svg xmlns="http://www.w3.org/2000/svg" width="16" height="18" viewBox="0 0 16 18">
  <metadata><?xpacket begin="﻿" id="W5M0MpCehiHzreSzNTczkc9d"?>
<x:xmpmeta xmlns:x="adobe:ns:meta/" x:xmptk="Adobe XMP Core 5.6-c142 79.160924, 2017/07/13-01:06:39        ">
   <rdf:RDF xmlns:rdf="http://www.w3.org/1999/02/22-rdf-syntax-ns#">
      <rdf:Description rdf:about=""/>
   </rdf:RDF>
</x:xmpmeta>
                                                                                                    
                                                                                                    
                                                                                                    
                                                                                                    
                                                                                                    
                                                                                                    
                                                                                                    
                                                                                                    
                                                                                                    
                                                                                                    
                                                                                                    
                                                                                                    
                                                                                                    
                                                                                                    
                                                                                                    
                                                                                                    
                                                                                                    
                                                                                                    
                                                                                                    
                                                                                                    
                           
<?xpacket end="w"?></metadata>
<defs>
    <style>
      .cls-1 {
        fill: #0abbb5;
        fill-rule: evenodd;
      }
    </style>
  </defs>
  <path id="Фигура_2" data-name="Фигура 2" class="cls-1" d="M719.857,440.992l-6.64-6.843a2.248,2.248,0,0,0-1.7-.742,2.129,2.129,0,0,0-1.589.671,2.264,2.264,0,0,0-.651,1.637,2.385,2.385,0,0,0,.72,1.755l4.686,4.83a0.343,0.343,0,0,0,.251.118,0.983,0.983,0,0,0,.537-0.365,1.022,1.022,0,0,0,.354-0.554,0.365,0.365,0,0,0-.114-0.259l-4.686-4.83a1.02,1.02,0,0,1-.285-0.7,0.776,0.776,0,0,1,.217-0.565,0.734,0.734,0,0,1,.549-0.224,0.962,0.962,0,0,1,.685.283l6.64,6.843a2.383,2.383,0,0,1,.72,1.708,1.721,1.721,0,0,1-.48,1.249,1.616,1.616,0,0,1-1.211.5,2.248,2.248,0,0,1-1.657-.742l-8.869-9.153a2.957,2.957,0,0,1-.868-2.132,2.993,2.993,0,0,1,.834-2.132,2.7,2.7,0,0,1,2.046-.884,2.841,2.841,0,0,1,2.068.907l6.926,7.15a0.353,0.353,0,0,0,.263.118,0.964,0.964,0,0,0,.531-0.359,1.007,1.007,0,0,0,.349-0.548,0.362,0.362,0,0,0-.115-0.259l-6.914-7.138a4.233,4.233,0,0,0-3.12-1.331,4.1,4.1,0,0,0-3.074,1.307A4.42,4.42,0,0,0,705,433.489a4.473,4.473,0,0,0,1.291,3.192l8.88,9.141A3.624,3.624,0,0,0,717.857,447a3,3,0,0,0,2.24-.93,3.185,3.185,0,0,0,.9-2.309A3.8,3.8,0,0,0,719.857,440.992Z" transform="translate(-705 -429)"/>
</svg>
