<svg xmlns="http://www.w3.org/2000/svg" width="26" height="26" viewBox="0 0 26 26">
  <metadata><?xpacket begin="﻿" id="W5M0MpCehiHzreSzNTczkc9d"?>
<x:xmpmeta xmlns:x="adobe:ns:meta/" x:xmptk="Adobe XMP Core 5.6-c142 79.160924, 2017/07/13-01:06:39        ">
   <rdf:RDF xmlns:rdf="http://www.w3.org/1999/02/22-rdf-syntax-ns#">
      <rdf:Description rdf:about=""/>
   </rdf:RDF>
</x:xmpmeta>
                                                                                                    
                                                                                                    
                                                                                                    
                                                                                                    
                                                                                                    
                                                                                                    
                                                                                                    
                                                                                                    
                                                                                                    
                                                                                                    
                                                                                                    
                                                                                                    
                                                                                                    
                                                                                                    
                                                                                                    
                                                                                                    
                                                                                                    
                                                                                                    
                                                                                                    
                                                                                                    
                           
<?xpacket end="w"?></metadata>
<defs>
    <style>
      .cls-1 {
        fill: #0abbb5;
        fill-rule: evenodd;
      }
    </style>
  </defs>
  <path id="Фигура_73" data-name="Фигура 73" class="cls-1" d="M379.6,67a6.208,6.208,0,0,1,1.617,1.519l0.506,0.405,3.337,3.444c0.389,0.39,1.438,1.126,1.516,1.722a2.872,2.872,0,0,0-.606.608q-0.709.709-1.416,1.418c-0.208.209-.691,0.417-0.5,0.709a4.2,4.2,0,0,0,.808,1.216v0.2l0.3,0.2v0.2l0.3,0.2v0.2l0.506,0.405v0.2l1.314,1.216L388.1,81.79h0.2l0.4,0.506,0.3,0.1c0.034,0.068.068,0.135,0.1,0.2h0.2l0.2,0.3h0.2l0.2,0.3h0.2c0.034,0.067.068,0.135,0.1,0.2h0.2v0.1h0.2l0.1,0.2h0.2v0.1a2.173,2.173,0,0,0,.91-0.811l1.315-1.114a1.451,1.451,0,0,1,.91-0.709l5.055,5.268,1.821,1.722v0.2a7.068,7.068,0,0,0-1.214,1.216L398,91.211l-0.707.811h-0.2c-0.033.067-.067,0.135-0.1,0.2h-0.2l-0.1.2-1.416.507a3.683,3.683,0,0,1-1.921-.2h-0.4v-0.1l-0.607-.2v-0.1h-0.2v-0.1h-0.2v-0.1h-0.2v-0.1h-0.2v-0.1h-0.2v-0.1h-0.2l-0.1-.2-0.606-.2c-0.034-.068-0.068-0.135-0.1-0.2l-0.4-.1-0.1-.2h-0.2v-0.1h-0.2V90.7l-0.3-.1c-0.033-.068-0.067-0.135-0.1-0.2l-0.4-.1c-0.034-.068-0.068-0.135-0.1-0.2h-0.2c-0.067-.1-0.134-0.2-0.2-0.3h-0.2v-0.1l-0.3-.1-0.1-.2h-0.2l-0.2-.3h-0.2l-0.2-.3h-0.2l-0.2-.3h-0.2l-0.3-.405h-0.2l-0.4-.507h-0.2l-0.607-.709h-0.2l-1.113-1.216-2.022-1.925v-0.2l-0.607-.507V82.8l-0.2-.1V82.6l-0.3-.2V82.2l-0.4-.3v-0.2l-0.3-.2v-0.2l-0.3-.2v-0.2l-0.3-.2v-0.2l-0.3-.2v-0.2l-0.2-.1v-0.2l-0.2-.1v-0.2l-0.2-.1v-0.2l-0.2-.1v-0.2l-0.2-.1c-0.034-.135-0.068-0.27-0.1-0.405l-0.2-.1-0.1-.405-0.2-.1-0.2-.608-0.2-.1L375.051,74.4a7.636,7.636,0,0,1,.2-2.634h0.1v-0.2h0.1c0.033-.135.067-0.27,0.1-0.405l0.2-.1v-0.2l2.73-2.836Zm21.335,12.055h-2.023V75.712h-0.1V74.9c0-.83.119-1.609-0.4-1.925a2.521,2.521,0,0,0-1.517-.2h-3.943v0.1a8.958,8.958,0,0,1,1.516,1.52,1.813,1.813,0,0,1,.708.81c-0.54.32-.95,1.228-1.618,1.317l-3.438-3.546A4.04,4.04,0,0,1,388.9,71.66l3.539-3.444A3.163,3.163,0,0,1,393.859,67c0.306,0.523,1.157.938,1.314,1.519a5.434,5.434,0,0,0-1.011,1.013,6.135,6.135,0,0,0-1.112,1.114h5.359l0.91,0.3v0.1l0.4,0.1,0.506,0.608,0.2,0.1v0.2l0.2,0.1a5.19,5.19,0,0,1,.3,2.431v4.457ZM379.6,70.039a2.786,2.786,0,0,1-.506.405l-0.91,1.013-0.506.405v0.2l-0.2.1v0.2l-0.2.1v0.3h-0.1a3.242,3.242,0,0,0,.3,1.925h0.1v0.2h0.1v0.2h0.1v0.2h0.1v0.2h0.1v0.2l0.2,0.1,0.2,0.608,0.2,0.1,0.1,0.405,0.2,0.1c0.033,0.135.067,0.27,0.1,0.405h0.1l0.1,0.3,0.2,0.1v0.2l0.2,0.1v0.2l0.2,0.1v0.2h0.1l0.1,0.3,0.2,0.1v0.2l0.3,0.2v0.2l0.3,0.2v0.2l0.3,0.2v0.2l0.405,0.3v0.2l0.5,0.4v0.2l0.708,0.608v0.2l1.213,1.114,1.618,1.722h0.2l0.607,0.709h0.2l0.3,0.405h0.2l0.3,0.405h0.2l0.3,0.405h0.2c0.068,0.1.135,0.2,0.2,0.3h0.2c0.033,0.068.067,0.135,0.1,0.2h0.2l0.2,0.3h0.2c0.034,0.068.068,0.135,0.1,0.2l0.3,0.1v0.1h0.2l0.1,0.2,0.3,0.1v0.1h0.2v0.1h0.2l0.1,0.2,0.405,0.1c0.033,0.067.067,0.135,0.1,0.2h0.2v0.1h0.2c0.034,0.067.068,0.135,0.1,0.2h0.2v0.1h0.2v0.1h0.2V90h0.2c0.034,0.068.068,0.135,0.1,0.2h0.2v0.1l0.607,0.2v0.1l0.607,0.1v0.1a3.9,3.9,0,0,0,1.517-.2,7.389,7.389,0,0,0,1.314-1.317,2.9,2.9,0,0,0,1.011-1.114l-2.932-2.836a3.278,3.278,0,0,0-1.214-1.115,1.233,1.233,0,0,1-.4.3l-1.82,1.925-1.618-.709-0.1-.2-0.4-.1-0.1-.2h-0.2c-0.033-.068-0.067-0.135-0.1-0.2h-0.2c-0.034-.068-0.068-0.135-0.1-0.2h-0.2l-0.1-.2h-0.2c-0.033-.068-0.067-0.135-0.1-0.2l-0.3-.1c-0.068-.1-0.135-0.2-0.2-0.3h-0.2l-0.4-.506h-0.2l-1.315-1.418-1.112-1.013v-0.2l-0.506-.405v-0.2l-0.3-.2v-0.2l-0.4-.3v-0.2l-0.2-.1c-0.033-.1-0.067-0.2-0.1-0.3h-0.1v-0.2l-0.2-.1v-0.2l-0.2-.1-0.1-.405-0.2-.1-0.708-1.621a6.042,6.042,0,0,0,1.113-1.115,6.74,6.74,0,0,0,1.213-1.216l-2.932-2.837A2.91,2.91,0,0,0,379.6,70.039Z" transform="translate(-374.969 -67)"/>
</svg>
