<svg xmlns="http://www.w3.org/2000/svg" width="20" height="20" viewBox="0 0 20 20">
  <metadata><?xpacket begin="﻿" id="W5M0MpCehiHzreSzNTczkc9d"?>
<x:xmpmeta xmlns:x="adobe:ns:meta/" x:xmptk="Adobe XMP Core 5.6-c142 79.160924, 2017/07/13-01:06:39        ">
   <rdf:RDF xmlns:rdf="http://www.w3.org/1999/02/22-rdf-syntax-ns#">
      <rdf:Description rdf:about=""/>
   </rdf:RDF>
</x:xmpmeta>
                                                                                                    
                                                                                                    
                                                                                                    
                                                                                                    
                                                                                                    
                                                                                                    
                                                                                                    
                                                                                                    
                                                                                                    
                                                                                                    
                                                                                                    
                                                                                                    
                                                                                                    
                                                                                                    
                                                                                                    
                                                                                                    
                                                                                                    
                                                                                                    
                                                                                                    
                                                                                                    
                           
<?xpacket end="w"?></metadata>
<defs>
    <style>
      .cls-1 {
        fill: #fff;
        fill-rule: evenodd;
      }
    </style>
  </defs>
  <path id="Фигура_75" data-name="Фигура 75" class="cls-1" d="M1303,1806a10,10,0,1,1-10,10A9.915,9.915,0,0,1,1303,1806Zm-5.5,9.56a15.392,15.392,0,0,1,1-4.44,13.2,13.2,0,0,1-2.3-1.24,8.956,8.956,0,0,0-2.26,5.68h3.56Zm-3.56.88a8.956,8.956,0,0,0,2.26,5.68,13.2,13.2,0,0,1,2.3-1.24,13.8,13.8,0,0,1-1-4.44h-3.56Zm6.53-9.18a8.55,8.55,0,0,0-3.65,2,10.309,10.309,0,0,0,1.97,1.09A13.833,13.833,0,0,1,1300.47,1807.26Zm-3.65,15.48a8.189,8.189,0,0,0,3.65,1.97,12.2,12.2,0,0,1-1.65-3.09A9.953,9.953,0,0,0,1296.82,1822.74Zm5.74-10.51a10.326,10.326,0,0,1-3.27-.82,13.188,13.188,0,0,0-.91,4.15h4.18v-3.33Zm-4.18,4.21a13.684,13.684,0,0,0,.91,4.15,10.326,10.326,0,0,1,3.27-.82v-3.33h-4.18Zm4.18-9.53a4.836,4.836,0,0,0-.91.09,17.433,17.433,0,0,0-2.09,3.67,10.765,10.765,0,0,0,3,.65v-4.41Zm0,13.77a10.947,10.947,0,0,0-2.97.62,15.848,15.848,0,0,0,2.06,3.7,4.836,4.836,0,0,0,.91.09v-4.41Zm0.88-9.36a10.765,10.765,0,0,0,3-.65,17.433,17.433,0,0,0-2.09-3.67,4.836,4.836,0,0,0-.91-0.09v4.41Zm0,4.24h4.18a13.188,13.188,0,0,0-.91-4.15,10.326,10.326,0,0,1-3.27.82v3.33Zm0,0.88v3.33a10.326,10.326,0,0,1,3.27.82,13.684,13.684,0,0,0,.91-4.15h-4.18Zm0,8.65a4.836,4.836,0,0,0,.91-0.09,15.848,15.848,0,0,0,2.06-3.7,10.947,10.947,0,0,0-2.97-.62v4.41Zm5.74-15.83a8.55,8.55,0,0,0-3.65-2,13.833,13.833,0,0,1,1.68,3.09A10.309,10.309,0,0,0,1309.18,1809.26Zm-3.65,15.45a8.189,8.189,0,0,0,3.65-1.97,9.953,9.953,0,0,0-2-1.12A12.2,12.2,0,0,1,1305.53,1824.71Zm6.53-9.15a8.956,8.956,0,0,0-2.26-5.68,13.58,13.58,0,0,1-2.3,1.24,15.392,15.392,0,0,1,1,4.44h3.56Zm-3.56.88a13.8,13.8,0,0,1-1,4.44,13.58,13.58,0,0,1,2.3,1.24,8.956,8.956,0,0,0,2.26-5.68h-3.56Z" transform="translate(-1293 -1806)"/>
</svg>
