<svg xmlns="http://www.w3.org/2000/svg" xmlns:xlink="http://www.w3.org/1999/xlink"><defs>
    <style>
      .cls-1 {
        fill: none;
        stroke: #0abbb5;
        stroke-linecap: round;
        stroke-linejoin: round;
        stroke-width: 2px;
        fill-rule: evenodd;
      }
    </style>
  
    <style>
      .cls-1 {
        fill: #fff;
        fill-rule: evenodd;
      }
    </style>
  
    <style>
      .cls-1 {
        fill: #fff;
        fill-rule: evenodd;
      }
    </style>
  
    <style>
      .cls-1 {
        fill: #fff;
        fill-rule: evenodd;
      }
    </style>
  
    <style>
      .cls-1 {
        fill: #fff;
        fill-rule: evenodd;
      }
    </style>
  
    <style>
      .cls-1 {
        fill: #fff;
        fill-rule: evenodd;
      }
    </style>
  
    <style>
      .cls-1 {
        fill: #0abbb5;
        fill-rule: evenodd;
      }
    </style>
  </defs><symbol id="icon-arrow" viewBox="0 0 28.343 51.093">
  <metadata><?xpacket begin="﻿" id="W5M0MpCehiHzreSzNTczkc9d"?>
<x:xmpmeta xmlns:x="adobe:ns:meta/" x:xmptk="Adobe XMP Core 5.6-c142 79.160924, 2017/07/13-01:06:39        ">
   <rdf:RDF xmlns:rdf="http://www.w3.org/1999/02/22-rdf-syntax-ns#">
      <rdf:Description rdf:about=""/>
   </rdf:RDF>
</x:xmpmeta>
                                                                                                    
                                                                                                    
                                                                                                    
                                                                                                    
                                                                                                    
                                                                                                    
                                                                                                    
                                                                                                    
                                                                                                    
                                                                                                    
                                                                                                    
                                                                                                    
                                                                                                    
                                                                                                    
                                                                                                    
                                                                                                    
                                                                                                    
                                                                                                    
                                                                                                    
                                                                                                    
                           
<?xpacket end="w"?></metadata>

  <path id="&#x43D;&#x430;&#x437;&#x430;&#x434;" class="cls-1" d="M413.343,529.75L388.7,505.893l23.857-24.644" transform="translate(-387.688 -479.938)"/>
</symbol><symbol id="icon-fb" viewBox="0 0 39 39.22">
  <metadata><?xpacket begin="﻿" id="W5M0MpCehiHzreSzNTczkc9d"?>
<x:xmpmeta xmlns:x="adobe:ns:meta/" x:xmptk="Adobe XMP Core 5.6-c142 79.160924, 2017/07/13-01:06:39        ">
   <rdf:RDF xmlns:rdf="http://www.w3.org/1999/02/22-rdf-syntax-ns#">
      <rdf:Description rdf:about=""/>
   </rdf:RDF>
</x:xmpmeta>
                                                                                                    
                                                                                                    
                                                                                                    
                                                                                                    
                                                                                                    
                                                                                                    
                                                                                                    
                                                                                                    
                                                                                                    
                                                                                                    
                                                                                                    
                                                                                                    
                                                                                                    
                                                                                                    
                                                                                                    
                                                                                                    
                                                                                                    
                                                                                                    
                                                                                                    
                                                                                                    
                           
<?xpacket end="w"?></metadata>

  <path id="&#x424;&#x411;" class="cls-1" d="M968.857,1791.94a7.014,7.014,0,0,0-5.165-2.16H939.325a7.017,7.017,0,0,0-5.166,2.16,7.1,7.1,0,0,0-2.145,5.19v24.52a7.349,7.349,0,0,0,7.311,7.35h24.367a7.014,7.014,0,0,0,5.165-2.16,7.086,7.086,0,0,0,2.145-5.19v-24.52A7.1,7.1,0,0,0,968.857,1791.94Zm-3.667,18.01h-4.442v16.22H954.1v-16.22h-3.326v-5.59H954.1v-3.34a7.82,7.82,0,0,1,1.675-5.44q1.674-1.845,5.533-1.84h4.442v5.59h-2.792a2.345,2.345,0,0,0-1.815.5,2.894,2.894,0,0,0-.393,1.75v2.78h5.026Z" transform="translate(-932 -1789.78)"/>
</symbol><symbol id="icon-insta" viewBox="0 0 39 39.22">
  <metadata><?xpacket begin="﻿" id="W5M0MpCehiHzreSzNTczkc9d"?>
<x:xmpmeta xmlns:x="adobe:ns:meta/" x:xmptk="Adobe XMP Core 5.6-c142 79.160924, 2017/07/13-01:06:39        ">
   <rdf:RDF xmlns:rdf="http://www.w3.org/1999/02/22-rdf-syntax-ns#">
      <rdf:Description rdf:about=""/>
   </rdf:RDF>
</x:xmpmeta>
                                                                                                    
                                                                                                    
                                                                                                    
                                                                                                    
                                                                                                    
                                                                                                    
                                                                                                    
                                                                                                    
                                                                                                    
                                                                                                    
                                                                                                    
                                                                                                    
                                                                                                    
                                                                                                    
                                                                                                    
                                                                                                    
                                                                                                    
                                                                                                    
                                                                                                    
                                                                                                    
                           
<?xpacket end="w"?></metadata>

  <path id="&#x418;&#x413;" class="cls-1" d="M916.514,1791.48a4.789,4.789,0,0,0-3.528-1.48H884a4.786,4.786,0,0,0-3.528,1.48,4.859,4.859,0,0,0-1.473,3.55v29.16a5.041,5.041,0,0,0,5,5.03h28.988a5.04,5.04,0,0,0,5-5.03v-29.16A4.862,4.862,0,0,0,916.514,1791.48ZM893,1804.13a7.98,7.98,0,0,1,11.067,0,7.494,7.494,0,0,1,0,10.8,7.955,7.955,0,0,1-11.067,0A7.5,7.5,0,0,1,893,1804.13Zm20.574,19.01a1.548,1.548,0,0,1-1.55,1.56H884.886a1.488,1.488,0,0,1-1.1-.45,1.519,1.519,0,0,1-.444-1.11v-16.55h3.579a11.528,11.528,0,0,0,3.046,11.71,11.808,11.808,0,0,0,8.554,3.46,12.2,12.2,0,0,0,6.093-1.58,11.927,11.927,0,0,0,4.416-4.3,11.408,11.408,0,0,0,1.625-5.94,11.119,11.119,0,0,0-.508-3.35h3.427v16.55h0Zm0-22.8a1.707,1.707,0,0,1-.508,1.25,1.688,1.688,0,0,1-1.244.51H907.4a1.686,1.686,0,0,1-1.243-.51,1.707,1.707,0,0,1-.508-1.25v-4.22a1.711,1.711,0,0,1,.508-1.23,1.667,1.667,0,0,1,1.243-.53h4.417a1.669,1.669,0,0,1,1.244.53,1.711,1.711,0,0,1,.508,1.23v4.22Z" transform="translate(-879 -1790)"/>
</symbol><symbol id="icon-mail" viewBox="0 0 20 15">
  <metadata><?xpacket begin="﻿" id="W5M0MpCehiHzreSzNTczkc9d"?>
<x:xmpmeta xmlns:x="adobe:ns:meta/" x:xmptk="Adobe XMP Core 5.6-c142 79.160924, 2017/07/13-01:06:39        ">
   <rdf:RDF xmlns:rdf="http://www.w3.org/1999/02/22-rdf-syntax-ns#">
      <rdf:Description rdf:about=""/>
   </rdf:RDF>
</x:xmpmeta>
                                                                                                    
                                                                                                    
                                                                                                    
                                                                                                    
                                                                                                    
                                                                                                    
                                                                                                    
                                                                                                    
                                                                                                    
                                                                                                    
                                                                                                    
                                                                                                    
                                                                                                    
                                                                                                    
                                                                                                    
                                                                                                    
                                                                                                    
                                                                                                    
                                                                                                    
                                                                                                    
                           
<?xpacket end="w"?></metadata>

  <path id="&#x424;&#x438;&#x433;&#x443;&#x440;&#x430;_74" data-name="&#x424;&#x438;&#x433;&#x443;&#x440;&#x430; 74" class="cls-1" d="M1293,1789v-14.99h20V1789h-20Zm0.97-1.64,5.74-5.86-5.74-5.85v11.71Zm0.64-12.37,7.3,7.43a1.274,1.274,0,0,0,2.19,0l7.29-7.43h-16.78Zm16.78,13.02-5.74-5.85c-1.13,1.15-1.87,1.94-2.65,1.94s-1.51-.79-2.64-1.94l-5.75,5.85h16.78Zm-5.1-6.51,5.75,5.86v-11.71Z" transform="translate(-1293 -1774)"/>
</symbol><symbol id="icon-net" viewBox="0 0 20 20">
  <metadata><?xpacket begin="﻿" id="W5M0MpCehiHzreSzNTczkc9d"?>
<x:xmpmeta xmlns:x="adobe:ns:meta/" x:xmptk="Adobe XMP Core 5.6-c142 79.160924, 2017/07/13-01:06:39        ">
   <rdf:RDF xmlns:rdf="http://www.w3.org/1999/02/22-rdf-syntax-ns#">
      <rdf:Description rdf:about=""/>
   </rdf:RDF>
</x:xmpmeta>
                                                                                                    
                                                                                                    
                                                                                                    
                                                                                                    
                                                                                                    
                                                                                                    
                                                                                                    
                                                                                                    
                                                                                                    
                                                                                                    
                                                                                                    
                                                                                                    
                                                                                                    
                                                                                                    
                                                                                                    
                                                                                                    
                                                                                                    
                                                                                                    
                                                                                                    
                                                                                                    
                           
<?xpacket end="w"?></metadata>

  <path id="&#x424;&#x438;&#x433;&#x443;&#x440;&#x430;_75" data-name="&#x424;&#x438;&#x433;&#x443;&#x440;&#x430; 75" class="cls-1" d="M1303,1806a10,10,0,1,1-10,10A9.915,9.915,0,0,1,1303,1806Zm-5.5,9.56a15.392,15.392,0,0,1,1-4.44,13.2,13.2,0,0,1-2.3-1.24,8.956,8.956,0,0,0-2.26,5.68h3.56Zm-3.56.88a8.956,8.956,0,0,0,2.26,5.68,13.2,13.2,0,0,1,2.3-1.24,13.8,13.8,0,0,1-1-4.44h-3.56Zm6.53-9.18a8.55,8.55,0,0,0-3.65,2,10.309,10.309,0,0,0,1.97,1.09A13.833,13.833,0,0,1,1300.47,1807.26Zm-3.65,15.48a8.189,8.189,0,0,0,3.65,1.97,12.2,12.2,0,0,1-1.65-3.09A9.953,9.953,0,0,0,1296.82,1822.74Zm5.74-10.51a10.326,10.326,0,0,1-3.27-.82,13.188,13.188,0,0,0-.91,4.15h4.18v-3.33Zm-4.18,4.21a13.684,13.684,0,0,0,.91,4.15,10.326,10.326,0,0,1,3.27-.82v-3.33h-4.18Zm4.18-9.53a4.836,4.836,0,0,0-.91.09,17.433,17.433,0,0,0-2.09,3.67,10.765,10.765,0,0,0,3,.65v-4.41Zm0,13.77a10.947,10.947,0,0,0-2.97.62,15.848,15.848,0,0,0,2.06,3.7,4.836,4.836,0,0,0,.91.09v-4.41Zm0.88-9.36a10.765,10.765,0,0,0,3-.65,17.433,17.433,0,0,0-2.09-3.67,4.836,4.836,0,0,0-.91-0.09v4.41Zm0,4.24h4.18a13.188,13.188,0,0,0-.91-4.15,10.326,10.326,0,0,1-3.27.82v3.33Zm0,0.88v3.33a10.326,10.326,0,0,1,3.27.82,13.684,13.684,0,0,0,.91-4.15h-4.18Zm0,8.65a4.836,4.836,0,0,0,.91-0.09,15.848,15.848,0,0,0,2.06-3.7,10.947,10.947,0,0,0-2.97-.62v4.41Zm5.74-15.83a8.55,8.55,0,0,0-3.65-2,13.833,13.833,0,0,1,1.68,3.09A10.309,10.309,0,0,0,1309.18,1809.26Zm-3.65,15.45a8.189,8.189,0,0,0,3.65-1.97,9.953,9.953,0,0,0-2-1.12A12.2,12.2,0,0,1,1305.53,1824.71Zm6.53-9.15a8.956,8.956,0,0,0-2.26-5.68,13.58,13.58,0,0,1-2.3,1.24,15.392,15.392,0,0,1,1,4.44h3.56Zm-3.56.88a13.8,13.8,0,0,1-1,4.44,13.58,13.58,0,0,1,2.3,1.24,8.956,8.956,0,0,0,2.26-5.68h-3.56Z" transform="translate(-1293 -1806)"/>
</symbol><symbol id="icon-phone-white" viewBox="0 0 20.03 20">
  <metadata><?xpacket begin="﻿" id="W5M0MpCehiHzreSzNTczkc9d"?>
<x:xmpmeta xmlns:x="adobe:ns:meta/" x:xmptk="Adobe XMP Core 5.6-c142 79.160924, 2017/07/13-01:06:39        ">
   <rdf:RDF xmlns:rdf="http://www.w3.org/1999/02/22-rdf-syntax-ns#">
      <rdf:Description rdf:about=""/>
   </rdf:RDF>
</x:xmpmeta>
                                                                                                    
                                                                                                    
                                                                                                    
                                                                                                    
                                                                                                    
                                                                                                    
                                                                                                    
                                                                                                    
                                                                                                    
                                                                                                    
                                                                                                    
                                                                                                    
                                                                                                    
                                                                                                    
                                                                                                    
                                                                                                    
                                                                                                    
                                                                                                    
                                                                                                    
                                                                                                    
                           
<?xpacket end="w"?></metadata>

  <path id="&#x424;&#x438;&#x433;&#x443;&#x440;&#x430;_72" data-name="&#x424;&#x438;&#x433;&#x443;&#x440;&#x430; 72" class="cls-1" d="M1296.55,1733a4.606,4.606,0,0,1,1.25,1.17c0.13,0.1.26,0.2,0.39,0.31,0.86,0.88,1.72,1.76,2.57,2.64a3.711,3.711,0,0,1,1.17,1.33,2.008,2.008,0,0,0-.46.46c-0.37.37-.73,0.73-1.1,1.09-0.16.16-.53,0.32-0.39,0.55a3.388,3.388,0,0,0,.63.93v0.16c0.08,0.05.15,0.1,0.23,0.15v0.16c0.08,0.05.16,0.1,0.24,0.16v0.15c0.13,0.1.26,0.21,0.39,0.31v0.16c0.33,0.31.67,0.62,1.01,0.93,0.21,0.24.41,0.47,0.62,0.7h0.16c0.1,0.13.21,0.26,0.31,0.39,0.08,0.03.16,0.05,0.23,0.08a1.093,1.093,0,0,1,.08.15h0.16l0.15,0.24h0.16c0.05,0.08.1,0.15,0.16,0.23h0.15c0.03,0.05.05,0.11,0.08,0.16h0.16v0.08h0.15c0.03,0.05.05,0.1,0.08,0.15h0.16v0.08a1.752,1.752,0,0,0,.7-0.62c0.33-.29.67-0.57,1.01-0.86a1.079,1.079,0,0,1,.7-0.54q1.95,2.01,3.9,4.04c0.47,0.44.94,0.88,1.4,1.33v0.15a5.456,5.456,0,0,0-.93.93c-0.44.42-.89,0.83-1.33,1.25-0.18.21-.36,0.41-0.54,0.62h-0.16c-0.03.05-.05,0.11-0.08,0.16h-0.15a1.093,1.093,0,0,0-.08.15c-0.37.13-.73,0.26-1.09,0.39a2.863,2.863,0,0,1-1.48-.15h-0.32v-0.08c-0.15-.05-0.31-0.1-0.46-0.16v-0.07h-0.16v-0.08h-0.16v-0.08h-0.15v-0.08h-0.16v-0.08h-0.15v-0.07h-0.16a0.8,0.8,0,0,0-.08-0.16c-0.15-.05-0.31-0.1-0.46-0.15-0.03-.06-0.06-0.11-0.08-0.16-0.11-.03-0.21-0.05-0.31-0.08a1.093,1.093,0,0,1-.08-0.15h-0.16v-0.08h-0.15v-0.08c-0.08-.03-0.16-0.05-0.24-0.08a1.093,1.093,0,0,0-.08-0.15c-0.1-.03-0.2-0.05-0.31-0.08-0.02-.05-0.05-0.1-0.08-0.16h-0.15c-0.05-.07-0.11-0.15-0.16-0.23h-0.15v-0.08a2.25,2.25,0,0,1-.24-0.08,1.093,1.093,0,0,0-.08-0.15h-0.15c-0.05-.08-0.11-0.16-0.16-0.23h-0.15c-0.05-.08-0.11-0.16-0.16-0.24h-0.15c-0.06-.08-0.11-0.15-0.16-0.23h-0.16a3.553,3.553,0,0,0-.23-0.31h-0.16c-0.1-.13-0.2-0.26-0.31-0.39h-0.15c-0.16-.18-0.32-0.37-0.47-0.55h-0.16c-0.28-.31-0.57-0.62-0.86-0.93-0.51-.49-1.03-0.99-1.55-1.48v-0.15c-0.16-.13-0.32-0.26-0.47-0.39v-0.16c-0.05-.03-0.11-0.05-0.16-0.08v-0.08c-0.08-.05-0.15-0.1-0.23-0.15v-0.16a3.553,3.553,0,0,1-.31-0.23v-0.16l-0.24-.15v-0.16c-0.08-.05-0.15-0.1-0.23-0.15v-0.16l-0.24-.15v-0.16c-0.07-.05-0.15-0.1-0.23-0.16v-0.15c-0.05-.03-0.1-0.05-0.15-0.08v-0.15c-0.06-.03-0.11-0.06-0.16-0.08v-0.16c-0.05-.02-0.1-0.05-0.16-0.08v-0.15c-0.05-.03-0.1-0.05-0.15-0.08v-0.15a1.194,1.194,0,0,0-.16-0.08,2.806,2.806,0,0,0-.08-0.31,1.093,1.093,0,0,0-.15-0.08c-0.03-.11-0.05-0.21-0.08-0.31-0.05-.03-0.1-0.05-0.16-0.08-0.05-.16-0.1-0.31-0.15-0.47a1.194,1.194,0,0,1-.16-0.08c-0.31-.67-0.62-1.34-0.93-2.02a5.68,5.68,0,0,1,.15-2.02h0.08v-0.16h0.08c0.02-.1.05-0.21,0.08-0.31,0.05-.03.1-0.05,0.15-0.08v-0.15c0.7-.73,1.41-1.46,2.11-2.18C1295.98,1733.52,1296.27,1733.26,1296.55,1733Zm16.45,9.26h-1.56v-2.57h-0.07v-0.62c-0.01-.64.09-1.24-0.32-1.48a1.979,1.979,0,0,0-1.17-.15h-3.04v0.07a6.818,6.818,0,0,1,1.17,1.17,1.383,1.383,0,0,1,.55.62c-0.42.25-.73,0.95-1.25,1.02-0.88-.91-1.77-1.82-2.65-2.73a3.092,3.092,0,0,1-.93-1.01c0.91-.88,1.82-1.76,2.72-2.65a2.434,2.434,0,0,1,1.1-.93,6.888,6.888,0,0,1,1.01,1.17,3.844,3.844,0,0,0-.78.78,4.329,4.329,0,0,0-.86.85h4.13c0.24,0.08.47,0.16,0.71,0.23v0.08c0.1,0.03.2,0.05,0.31,0.08,0.13,0.16.26,0.31,0.39,0.47a1.093,1.093,0,0,1,.15.08v0.15c0.05,0.03.11,0.05,0.16,0.08a3.937,3.937,0,0,1,.23,1.87v3.42Zm-16.45-6.93a2.017,2.017,0,0,1-.39.32c-0.23.26-.46,0.51-0.7,0.77-0.13.11-.26,0.21-0.39,0.32v0.15c-0.05.03-.1,0.05-0.15,0.08v0.15a1.194,1.194,0,0,1-.16.08v0.24h-0.08a2.413,2.413,0,0,0,.24,1.47H1295v0.16h0.07v0.16h0.08v0.15h0.08v0.16h0.08v0.15c0.05,0.03.1,0.05,0.15,0.08,0.06,0.16.11,0.31,0.16,0.47a1.093,1.093,0,0,1,.15.08,2.806,2.806,0,0,1,.08.31c0.05,0.02.11,0.05,0.16,0.07,0.02,0.11.05,0.21,0.08,0.32h0.07a1.555,1.555,0,0,1,.08.23c0.05,0.03.11,0.05,0.16,0.08v0.15c0.05,0.03.1,0.05,0.15,0.08v0.16c0.06,0.02.11,0.05,0.16,0.07v0.16h0.08a1.555,1.555,0,0,0,.08.23c0.05,0.03.1,0.05,0.15,0.08v0.16l0.24,0.15v0.16c0.07,0.05.15,0.1,0.23,0.15v0.16c0.08,0.05.16,0.1,0.23,0.15v0.16c0.11,0.08.21,0.16,0.32,0.23v0.16c0.13,0.1.26,0.21,0.39,0.31v0.16c0.18,0.15.36,0.31,0.54,0.46v0.16c0.31,0.28.62,0.57,0.94,0.86,0.41,0.44.83,0.88,1.24,1.32h0.16c0.16,0.18.31,0.36,0.47,0.54h0.15c0.08,0.11.16,0.21,0.24,0.31h0.15c0.08,0.11.16,0.21,0.24,0.32h0.15c0.08,0.1.16,0.2,0.24,0.31h0.15c0.05,0.07.11,0.15,0.16,0.23h0.15a0.8,0.8,0,0,1,.08.16h0.16c0.05,0.07.1,0.15,0.15,0.23h0.16c0.03,0.05.05,0.1,0.08,0.16,0.08,0.02.15,0.05,0.23,0.07v0.08h0.16c0.02,0.05.05,0.1,0.08,0.16,0.07,0.02.15,0.05,0.23,0.07v0.08h0.16v0.08h0.15c0.03,0.05.05,0.1,0.08,0.16,0.1,0.02.21,0.05,0.31,0.07,0.03,0.06.05,0.11,0.08,0.16h0.15v0.08h0.16c0.03,0.05.05,0.1,0.08,0.15h0.15v0.08h0.16v0.08h0.16v0.08h0.15c0.03,0.05.05,0.1,0.08,0.15h0.16v0.08c0.15,0.05.31,0.1,0.46,0.16v0.07c0.16,0.03.32,0.05,0.47,0.08v0.08a3.017,3.017,0,0,0,1.17-.16,5.367,5.367,0,0,0,1.01-1.01,2.194,2.194,0,0,0,.78-0.85c-0.75-.73-1.5-1.46-2.26-2.18a2.4,2.4,0,0,0-.93-0.86,1.084,1.084,0,0,1-.31.23c-0.47.5-.94,0.99-1.41,1.48-0.41-.18-0.83-0.36-1.24-0.54a1.194,1.194,0,0,1-.08-0.16,2.806,2.806,0,0,1-.31-0.08,1.093,1.093,0,0,1-.08-0.15h-0.16a1.194,1.194,0,0,0-.08-0.16h-0.15c-0.03-.05-0.05-0.1-0.08-0.15h-0.16c-0.02-.05-0.05-0.11-0.07-0.16h-0.16c-0.03-.05-0.05-0.1-0.08-0.15a2.094,2.094,0,0,0-.23-0.08c-0.05-.08-0.11-0.16-0.16-0.24h-0.15c-0.11-.13-0.21-0.26-0.31-0.38h-0.16c-0.34-.37-0.68-0.73-1.01-1.09-0.29-.26-0.58-0.52-0.86-0.78v-0.16c-0.13-.1-0.26-0.21-0.39-0.31v-0.16l-0.24-.15v-0.16c-0.1-.07-0.2-0.15-0.31-0.23v-0.16c-0.05-.02-0.1-0.05-0.15-0.07a2.25,2.25,0,0,1-.08-0.24h-0.08v-0.15c-0.05-.03-0.1-0.05-0.15-0.08v-0.16c-0.06-.02-0.11-0.05-0.16-0.07-0.03-.11-0.05-0.21-0.08-0.32-0.05-.02-0.1-0.05-0.15-0.07-0.19-.42-0.37-0.83-0.55-1.25a4.942,4.942,0,0,0,.86-0.85,5.513,5.513,0,0,0,.93-0.94c-0.75-.72-1.5-1.45-2.26-2.18A2.309,2.309,0,0,0,1296.55,1735.33Z" transform="translate(-1293 -1733)"/>
</symbol><symbol id="icon-phone" viewBox="0 0 26 26">
  <metadata><?xpacket begin="﻿" id="W5M0MpCehiHzreSzNTczkc9d"?>
<x:xmpmeta xmlns:x="adobe:ns:meta/" x:xmptk="Adobe XMP Core 5.6-c142 79.160924, 2017/07/13-01:06:39        ">
   <rdf:RDF xmlns:rdf="http://www.w3.org/1999/02/22-rdf-syntax-ns#">
      <rdf:Description rdf:about=""/>
   </rdf:RDF>
</x:xmpmeta>
                                                                                                    
                                                                                                    
                                                                                                    
                                                                                                    
                                                                                                    
                                                                                                    
                                                                                                    
                                                                                                    
                                                                                                    
                                                                                                    
                                                                                                    
                                                                                                    
                                                                                                    
                                                                                                    
                                                                                                    
                                                                                                    
                                                                                                    
                                                                                                    
                                                                                                    
                                                                                                    
                           
<?xpacket end="w"?></metadata>

  <path id="&#x424;&#x438;&#x433;&#x443;&#x440;&#x430;_73" data-name="&#x424;&#x438;&#x433;&#x443;&#x440;&#x430; 73" class="cls-1" d="M379.6,67a6.208,6.208,0,0,1,1.617,1.519l0.506,0.405,3.337,3.444c0.389,0.39,1.438,1.126,1.516,1.722a2.872,2.872,0,0,0-.606.608q-0.709.709-1.416,1.418c-0.208.209-.691,0.417-0.5,0.709a4.2,4.2,0,0,0,.808,1.216v0.2l0.3,0.2v0.2l0.3,0.2v0.2l0.506,0.405v0.2l1.314,1.216L388.1,81.79h0.2l0.4,0.506,0.3,0.1c0.034,0.068.068,0.135,0.1,0.2h0.2l0.2,0.3h0.2l0.2,0.3h0.2c0.034,0.067.068,0.135,0.1,0.2h0.2v0.1h0.2l0.1,0.2h0.2v0.1a2.173,2.173,0,0,0,.91-0.811l1.315-1.114a1.451,1.451,0,0,1,.91-0.709l5.055,5.268,1.821,1.722v0.2a7.068,7.068,0,0,0-1.214,1.216L398,91.211l-0.707.811h-0.2c-0.033.067-.067,0.135-0.1,0.2h-0.2l-0.1.2-1.416.507a3.683,3.683,0,0,1-1.921-.2h-0.4v-0.1l-0.607-.2v-0.1h-0.2v-0.1h-0.2v-0.1h-0.2v-0.1h-0.2v-0.1h-0.2v-0.1h-0.2l-0.1-.2-0.606-.2c-0.034-.068-0.068-0.135-0.1-0.2l-0.4-.1-0.1-.2h-0.2v-0.1h-0.2V90.7l-0.3-.1c-0.033-.068-0.067-0.135-0.1-0.2l-0.4-.1c-0.034-.068-0.068-0.135-0.1-0.2h-0.2c-0.067-.1-0.134-0.2-0.2-0.3h-0.2v-0.1l-0.3-.1-0.1-.2h-0.2l-0.2-.3h-0.2l-0.2-.3h-0.2l-0.2-.3h-0.2l-0.3-.405h-0.2l-0.4-.507h-0.2l-0.607-.709h-0.2l-1.113-1.216-2.022-1.925v-0.2l-0.607-.507V82.8l-0.2-.1V82.6l-0.3-.2V82.2l-0.4-.3v-0.2l-0.3-.2v-0.2l-0.3-.2v-0.2l-0.3-.2v-0.2l-0.3-.2v-0.2l-0.2-.1v-0.2l-0.2-.1v-0.2l-0.2-.1v-0.2l-0.2-.1v-0.2l-0.2-.1c-0.034-.135-0.068-0.27-0.1-0.405l-0.2-.1-0.1-.405-0.2-.1-0.2-.608-0.2-.1L375.051,74.4a7.636,7.636,0,0,1,.2-2.634h0.1v-0.2h0.1c0.033-.135.067-0.27,0.1-0.405l0.2-.1v-0.2l2.73-2.836Zm21.335,12.055h-2.023V75.712h-0.1V74.9c0-.83.119-1.609-0.4-1.925a2.521,2.521,0,0,0-1.517-.2h-3.943v0.1a8.958,8.958,0,0,1,1.516,1.52,1.813,1.813,0,0,1,.708.81c-0.54.32-.95,1.228-1.618,1.317l-3.438-3.546A4.04,4.04,0,0,1,388.9,71.66l3.539-3.444A3.163,3.163,0,0,1,393.859,67c0.306,0.523,1.157.938,1.314,1.519a5.434,5.434,0,0,0-1.011,1.013,6.135,6.135,0,0,0-1.112,1.114h5.359l0.91,0.3v0.1l0.4,0.1,0.506,0.608,0.2,0.1v0.2l0.2,0.1a5.19,5.19,0,0,1,.3,2.431v4.457ZM379.6,70.039a2.786,2.786,0,0,1-.506.405l-0.91,1.013-0.506.405v0.2l-0.2.1v0.2l-0.2.1v0.3h-0.1a3.242,3.242,0,0,0,.3,1.925h0.1v0.2h0.1v0.2h0.1v0.2h0.1v0.2h0.1v0.2l0.2,0.1,0.2,0.608,0.2,0.1,0.1,0.405,0.2,0.1c0.033,0.135.067,0.27,0.1,0.405h0.1l0.1,0.3,0.2,0.1v0.2l0.2,0.1v0.2l0.2,0.1v0.2h0.1l0.1,0.3,0.2,0.1v0.2l0.3,0.2v0.2l0.3,0.2v0.2l0.3,0.2v0.2l0.405,0.3v0.2l0.5,0.4v0.2l0.708,0.608v0.2l1.213,1.114,1.618,1.722h0.2l0.607,0.709h0.2l0.3,0.405h0.2l0.3,0.405h0.2l0.3,0.405h0.2c0.068,0.1.135,0.2,0.2,0.3h0.2c0.033,0.068.067,0.135,0.1,0.2h0.2l0.2,0.3h0.2c0.034,0.068.068,0.135,0.1,0.2l0.3,0.1v0.1h0.2l0.1,0.2,0.3,0.1v0.1h0.2v0.1h0.2l0.1,0.2,0.405,0.1c0.033,0.067.067,0.135,0.1,0.2h0.2v0.1h0.2c0.034,0.067.068,0.135,0.1,0.2h0.2v0.1h0.2v0.1h0.2V90h0.2c0.034,0.068.068,0.135,0.1,0.2h0.2v0.1l0.607,0.2v0.1l0.607,0.1v0.1a3.9,3.9,0,0,0,1.517-.2,7.389,7.389,0,0,0,1.314-1.317,2.9,2.9,0,0,0,1.011-1.114l-2.932-2.836a3.278,3.278,0,0,0-1.214-1.115,1.233,1.233,0,0,1-.4.3l-1.82,1.925-1.618-.709-0.1-.2-0.4-.1-0.1-.2h-0.2c-0.033-.068-0.067-0.135-0.1-0.2h-0.2c-0.034-.068-0.068-0.135-0.1-0.2h-0.2l-0.1-.2h-0.2c-0.033-.068-0.067-0.135-0.1-0.2l-0.3-.1c-0.068-.1-0.135-0.2-0.2-0.3h-0.2l-0.4-.506h-0.2l-1.315-1.418-1.112-1.013v-0.2l-0.506-.405v-0.2l-0.3-.2v-0.2l-0.4-.3v-0.2l-0.2-.1c-0.033-.1-0.067-0.2-0.1-0.3h-0.1v-0.2l-0.2-.1v-0.2l-0.2-.1-0.1-.405-0.2-.1-0.708-1.621a6.042,6.042,0,0,0,1.113-1.115,6.74,6.74,0,0,0,1.213-1.216l-2.932-2.837A2.91,2.91,0,0,0,379.6,70.039Z" transform="translate(-374.969 -67)"/>
</symbol></svg>